<?xml version="1.0" encoding="UTF-8" standalone="no"?>
<!-- Created with Inkscape (http://www.inkscape.org/) -->

<svg
   xmlns:dc="http://purl.org/dc/elements/1.1/"
   xmlns:cc="http://creativecommons.org/ns#"
   xmlns:rdf="http://www.w3.org/1999/02/22-rdf-syntax-ns#"
   xmlns:svg="http://www.w3.org/2000/svg"
   xmlns="http://www.w3.org/2000/svg"
   xmlns:sodipodi="http://sodipodi.sourceforge.net/DTD/sodipodi-0.dtd"
   xmlns:inkscape="http://www.inkscape.org/namespaces/inkscape"
   width="1052.3622"
   height="744.09448"
   id="svg4782"
   version="1.1"
   inkscape:version="0.48.4 r9939"
   sodipodi:docname="logo.svg">
  <defs
     id="defs4784" />
  <sodipodi:namedview
     id="base"
     pagecolor="#ffffff"
     bordercolor="#666666"
     borderopacity="1.0"
     inkscape:pageopacity="0.0"
     inkscape:pageshadow="2"
     inkscape:zoom="0.35"
     inkscape:cx="375"
     inkscape:cy="520"
     inkscape:document-units="px"
     inkscape:current-layer="layer1"
     showgrid="false"
     inkscape:window-width="1280"
     inkscape:window-height="738"
     inkscape:window-x="0"
     inkscape:window-y="27"
     inkscape:window-maximized="1" />
  <metadata
     id="metadata4787">
    <rdf:RDF>
      <cc:Work
         rdf:about="">
        <dc:format>image/svg+xml</dc:format>
        <dc:type
           rdf:resource="http://purl.org/dc/dcmitype/StillImage" />
        <dc:title />
      </cc:Work>
    </rdf:RDF>
  </metadata>
  <g
     inkscape:label="Layer 1"
     inkscape:groupmode="layer"
     id="layer1"
     transform="translate(0,-308.2677)">
    <path
       style="font-size:39.82947922px;font-style:normal;font-variant:normal;font-weight:900;font-stretch:normal;text-align:start;line-height:200%;letter-spacing:0px;word-spacing:0px;writing-mode:lr-tb;text-anchor:start;fill:#ffffff;fill-opacity:1;stroke:none;font-family:Blackoak Std;-inkscape-font-specification:Blackoak Std Heavy"
       d="m 58.155137,479.0274 c -25.22899,1.79796 -46.679843,33.97594 -7.85215,57.8423 18.405873,12.77875 21.414649,16.09873 21.421828,22.8498 0.0067,14.10792 -16.772784,18.01643 -25.707809,5.71288 -1.797691,-2.47633 -2.683911,-2.36319 -9.28255,0.70616 -3.822744,1.77668 -6.86462,3.41416 -7.141818,3.57048 -0.280037,0.21305 -0.49677,1.28434 0,2.85735 8.613408,13.42948 23.533889,18.72308 31.42015,17.85177 39.216522,-0.74909 36.618539,-47.20201 4.286226,-64.26803 -13.883269,-9.14432 -17.12978,-12.13445 -17.139106,-19.28164 -0.0067,-7.24772 4.727694,-12.13864 12.138342,-12.13864 4.632483,0 7.362926,0.94226 11.426565,4.99803 2.940442,2.93888 2.681807,4.56791 4.999651,4.99809 4.462894,-1.15557 9.888666,-4.39436 12.852881,-5.71292 -7.801434,-15.37309 -19.951028,-20.81425 -31.420162,-19.99421 z m 139.250393,0 0,55.69981 0,56.41247 8.57091,0 8.5681,0 0,-56.41247 0,-55.69981 -8.5681,0 -8.57091,0 z m 72.1261,-0.002 c -11.96135,0.38468 -22.00835,5.95253 -28.56456,16.42397 -7.72492,12.68447 -7.14182,23.55384 -7.14182,38.56296 0.002,19.37355 0.53761,20.88473 2.14326,26.4221 5.0606,17.50056 14.93894,27.70224 29.27811,29.9903 4.16285,0.66489 12.01204,-0.32028 16.42325,-1.43349 8.29281,-2.0763 18.45765,-9.21048 22.13753,-16.42389 l 1.43345,-2.85544 -2.1419,-1.4336 c -1.92682,-0.74905 -10.99426,-5.45399 -12.85399,-6.42791 -0.83836,2.63266 -8.63298,9.11615 -12.13915,9.99813 -8.06742,2.03346 -14.01129,0.2775 -19.99357,-5.71285 -3.58388,-3.58114 -5.09691,-5.61029 -6.42798,-9.99836 -1.457,-4.81603 -0.92045,-6.57124 -0.70437,-23.56453 0.2173,-16.94412 0,-18.23709 1.43494,-21.42197 2.15947,-4.67481 7.27093,-9.47379 11.42552,-11.42584 4.08337,-1.92645 10.3614,-2.35244 14.2813,-0.70871 3.56412,1.49842 8.39525,6.0426 10.71098,9.99625 1.62694,2.17255 1.73337,3.06313 2.142,2.85739 0.44504,-0.21305 4.13594,-2.09761 7.85634,-4.28516 l 7.14055,-4.28311 -2.14299,-4.28537 c -5.14348,-10.71936 -15.0839,-17.6847 -27.13527,-19.28141 -2.37358,-0.32028 -4.90348,-0.79284 -7.14058,-0.70524 z m 55.69972,0.004 0,55.6997 -0.002,55.69979 8.56998,0 7.8554,0 0.002,-17.13883 0.002,-17.1387 2.14197,1.43338 c 0.8996,1.04825 6.34637,8.76742 12.14151,17.139 l 10.71072,15.71102 9.99628,0 c 8.06737,0 10.43065,-0.70525 9.99842,-1.43361 -0.29946,-0.51382 -9.22585,-12.6759 -19.28003,-27.13709 -10.05614,-14.46109 -17.85357,-26.68753 -17.85357,-27.13496 0,-0.4499 8.2318,-12.8984 18.56624,-27.84994 10.33655,-14.95331 18.56736,-27.61869 18.56736,-27.84976 0,-0.23549 -4.40206,0 -9.99842,0 l -9.99628,0 -11.42644,17.13681 c -6.22233,9.62775 -11.5963,17.97579 -12.13827,18.56665 -0.83837,0.8985 -1.43495,-1.56282 -1.43495,-17.13669 l -0.002,-18.56677 -7.85526,0 -8.56792,0 z m 83.54963,0.002 0,15.711 c 0,8.64758 0.45416,33.74687 0.70355,55.69967 l 0.70435,39.98884 29.99186,0 29.99298,0 0,-9.28357 -0.002,-9.28307 -21.42173,-0.002 -22.1377,-0.002 0.002,-14.28144 -0.002,-13.56854 15.70962,0 15.71065,0 -0.002,-9.28313 0,-9.28352 -15.71059,0 -15.70964,0 0.002,-14.28128 -0.002,-13.56842 21.42495,0.002 21.42187,0.002 0,-9.28329 -0.002,-9.28321 -29.99274,0 -30.70558,0 z m 79.26362,-0.002 0,55.6997 0,55.69979 7.85626,0 8.56794,0 0.7044,-8.56814 c 0.25862,-4.55948 0,-12.83888 0,-18.56681 l 0.004,-10.71115 3.57027,-0.70614 c 1.86275,-0.27752 3.47626,-0.21304 3.57034,0 0,0.21305 3.8444,9.00077 7.85629,19.27956 4.01096,10.28061 7.41274,19.11009 7.85533,19.28141 0.44502,0.21305 5.12187,0 9.99631,0 l 8.57,0 -10.71093,-23.56686 c -6.00615,-12.5625 -11.41943,-23.29267 -11.4255,-23.56463 -0.007,-0.2775 1.54099,-0.44984 2.85535,-0.70522 7.84923,-1.62694 15.86896,-10.6896 18.56633,-20.70928 1.06906,-3.95562 1.04937,-14.4462 0.004,-19.99418 -1.84101,-9.71144 -7.47251,-17.4472 -15.7106,-20.70936 -3.84438,-1.5197 -6.03696,-1.88357 -23.5648,-2.14262 l -18.56624,0.002 z m 121.39753,0.004 0,57.12753 0,54.27191 8.56908,0 8.5699,0 -0.002,-15.71119 c -0.004,-10.43695 0.29948,-16.68931 0.7044,-16.42382 0.38427,0.23549 5.80956,8.02896 12.14142,17.13884 l 11.42346,14.99617 9.99834,0 c 8.0509,0 10.4223,0.004 9.99833,-0.70864 -0.29947,-0.5138 -8.50678,-11.22034 -18.5672,-25.70732 -10.05931,-14.48679 -18.56631,-26.69596 -18.56631,-27.13699 0,-0.44991 8.23074,-12.89637 18.56631,-27.85002 10.33449,-14.95339 19.27987,-29.77837 19.27987,-29.99235 0,-0.21305 -5.08971,0 -10.711,0 l -9.99834,0 -12.13812,20.70919 -12.14124,18.56652 0,-18.56652 0.002,-20.70919 -8.56794,0 -8.57108,0.002 z m 119.25585,0.004 -1.43494,5.71309 c -0.60029,2.1191 -6.73405,26.50779 -14.28336,54.27199 -7.54697,27.76203 -14.07136,50.70381 -14.28119,51.41464 7.50051,0 10.20514,-0.21305 19.9945,-0.002 l 4.99967,-14.28117 4.99759,-15.71115 13.56858,0 14.28145,0 4.9986,15.71115 4.99962,14.28117 9.99616,0 9.99842,0 0,-0.70525 c -0.60032,-1.84077 -27.35541,-98.41746 -29.2773,-105.6866 l -1.43496,-4.99805 -13.56858,0 -13.56873,0 z m 74.97865,-0.002 0,57.12953 0,54.26978 17.13683,0 c 35.10625,2.01227 50.48808,-32.53523 49.98642,-56.41469 -0.2802,-7.70552 -1.02419,-12.20711 -2.13988,-16.42375 -4.75668,-17.78093 -15.16557,-31.12703 -31.42011,-36.41837 -3.55804,-1.15557 -6.8625,-1.84067 -18.56747,-2.1425 l -14.99579,0 z m 122.82499,0.004 -13.56546,52.84217 c -7.6382,28.06824 -14.99276,51.73973 -15.71158,54.27174 l -0.7044,4.28544 9.99839,0 9.99818,0 1.43353,-3.57028 c 0.64084,-2.11915 2.29721,-7.99901 4.28406,-14.28126 l 3.57022,-11.42595 14.28324,0 14.28132,0 4.99766,14.99618 5.00066,14.28131 c 7.27693,0.25746 16.1408,0.007 19.99352,-0.002 -0.21664,-0.55767 -6.72291,-22.67426 -14.28125,-49.98704 -7.55946,-27.31255 -14.19533,-53.67681 -14.99605,-56.4144 l -1.43501,-4.99826 -13.56758,0 -13.56864,0 z m 76.40908,-0.002 0,17.13888 c -0.01,8.64755 0.445,33.74685 0.7035,55.69978 l 0,39.98869 8.5688,0 8.57,0 0,-43.55902 c 0,-23.84949 -0.445,-48.94866 -0.7036,-55.69974 l -0.7034,-13.56859 -7.8554,0 -8.5711,0 z m -892.62511,0.70867 0.002,9.28327 -0.002,8.56846 13.5676,0 12.85403,0 0,46.4185 0,46.4164 8.57095,0 7.8533,0 0,-46.41856 0,-46.41634 12.85396,0 12.14027,0 0,-8.56846 0,-9.28327 -33.56216,0.002 -34.27795,0 z m -74.979642,123.5414 c -2.119163,0.42858 -3.570197,2.7419 -3.570197,4.99799 l -0.0022,49.27178 c 0.0022,2.57931 2.421213,5.00028 5.000764,5.00028 l 67.837765,0 c -46.345722,49.08989 -50.896427,144.86813 9.28383,177.09741 0,0.23548 0,0.47059 0,0.70525 0,95.86818 77.65838,173.52502 173.52719,173.52502 92.36773,0 167.41562,-72.5069 172.81135,-163.52891 l 126.39647,0.002 c 5.39577,91.02191 80.44363,163.53101 172.81149,163.53101 94.62869,0 172.26439,-75.7989 174.24188,-169.957 69.74401,-26.97847 67.20901,-129.87584 18.56707,-181.38234 l 69.98094,0 c 2.5776,0 4.2853,-2.4189 4.2853,-4.9982 l 0,-49.27169 c -0.011,-2.57937 -1.7118,-5.00028 -4.2853,-5.00028 l -985.457985,0 c -0.320236,0 -1.135216,0 -1.434986,0 z m 89.975622,59.27005 806.22073,0 c 11.97174,11.79616 22.14485,26.44565 28.5625,42.84603 16.87326,43.11363 11.97178,97.03468 -27.84985,118.54007 -8.25145,-88.20732 -82.45736,-157.81581 -172.8124,-157.81581 -93.23477,0 -169.41488,74.15709 -173.52413,166.38407 l -124.96801,-0.002 C 456.79819,740.28186 380.61862,666.12269 287.38324,666.12269 199.48964,666.12047 126.77397,732.04104 115.28531,816.79797 84.794951,792.27435 81.455221,744.4024 96.719143,705.39858 c 6.416477,-16.39847 16.588597,-31.05017 28.562427,-42.8463 z m 162.10167,16.42385 c 83.45746,0.002 152.40936,63.67521 160.67334,144.96225 0.29948,2.83193 0.57896,5.69582 0.70438,8.56826 l -117.8276,-0.004 112.11429,-22.13695 0,-2.14274 -119.96758,24.27969 -19.99441,0.002 122.11042,-71.41096 -0.70439,-0.70864 -122.11039,70.69603 c -0.3203,-0.53634 -1.04941,-0.92036 -1.43366,-1.4351 l 106.3989,-93.54774 -0.7044,-0.70868 -106.40091,92.83286 c -1.0701,-1.19939 -2.20695,-1.99064 -3.57032,-2.85533 l 70.69572,-122.11059 -1.43501,-0.70612 -70.69342,122.11043 c -0.51808,-0.25553 -0.87885,-0.51383 -1.43359,-0.70863 l 45.70143,-133.53633 -1.43501,-0.70607 -46.41624,133.53641 c -1.11308,-0.27752 -2.38287,-0.66488 -3.5701,-0.70865 l 0,-141.392 -1.43501,0 0,141.392 c -0.81772,0.007 -1.36915,0.57838 -2.14198,0.70865 l -27.13734,-138.53664 -1.43495,0 27.13734,138.53664 c -1.26241,0.34225 -2.43156,0.81349 -3.57041,1.43355 l -70.69551,-122.11036 -1.43503,0.70526 69.98105,122.82541 c -0.25936,0.21304 -0.46574,0.5138 -0.7044,0.70606 l -92.83342,-106.40146 -1.43343,0.70608 92.83223,106.40147 c -0.96307,0.96308 -1.41165,2.39091 -2.14202,3.57034 l -122.8262,-70.6959 -0.70438,0.70528 122.82614,71.40877 -4.99883,0 -129.96551,-44.27386 0,1.4336 124.9681,42.84613 -99.26125,0 c -14.1757,-0.5138 -25.78128,-3.58333 -35.70304,-8.56837 8.26279,-81.2871 76.50094,-144.96245 159.95851,-144.96245 z m 472.01931,0 c 85.38844,0.002 155.10673,66.68906 160.67423,150.67529 -5.6534,1.79806 -11.81756,2.93464 -18.56721,3.57038 -0.21731,0 -0.6003,-0.70527 -0.7044,-0.70527 l -97.11824,0 112.11519,-22.13681 -0.70438,-2.14278 -119.97044,24.27959 -19.99457,0.002 c 0,-0.21304 0,-0.53571 0,-0.70523 l 122.11026,-70.69614 -0.70351,-0.70866 -122.11041,70.69616 c -0.44503,-0.72765 -0.87879,-1.49838 -1.43361,-2.14275 -1.21992,-1.45539 -2.65704,-2.57498 -4.28609,-3.57017 l 70.69674,-122.11276 -0.70438,-0.70872 -71.40922,122.11267 c -0.49618,-0.23551 -0.92035,-0.51382 -1.43354,-0.70604 l 45.70143,-133.53634 -1.43501,-0.70868 -46.41606,133.53632 c -1.11317,-0.27751 -2.38316,-0.66309 -3.57038,-0.70607 l 0,-141.39198 -1.43493,0 0,141.39198 c -0.81781,0.007 -1.36924,0.57836 -2.14217,0.70607 l -27.13515,-138.53651 -1.43496,0 27.13525,138.53651 c -1.2844,0.34458 -2.43169,0.81352 -3.5704,1.43355 l -70.69572,-122.11052 -1.43494,0.70612 71.40935,122.11046 c -0.61934,0.38466 -1.58448,0.25744 -2.14093,0.70864 L 655.8589,720.4352 l -1.43343,0.70867 93.54773,105.68657 c -1.41307,1.26241 -1.92683,3.33498 -2.85549,4.99789 l -0.7044,0 c 0,0.21304 0,0.53579 0,0.70872 l -5.00071,0 -129.25091,-44.27379 -0.7044,1.43349 126.3963,42.84604 -137.1073,0 c 4.1331,-85.34542 74.30741,-153.5326 160.6711,-153.5326 z m -14.99597,152.81779 -121.3957,-71.41087 -0.70436,0.70526 122.11039,70.69594 z m 28.56451,-2.85742 106.40193,-92.83293 -0.70355,-0.70522 -105.68619,93.54779 z m -646.2622,15.71109 c 5.96768,2.03339 12.30355,4.09921 19.2818,4.99809 0.20764,0.49317 0.85921,0.70613 1.43362,0.70613 l 8.5709,0 c 4.13098,0.21305 8.39735,0.21305 12.8541,0 l 64.26757,0.002 -101.40119,19.99417 0.70438,1.43501 107.82927,-21.42407 28.56225,0 -119.25554,68.55327 0.70351,1.4335 121.39776,-69.98109 2.14304,0 c 0.21734,0.25553 0.51626,0.47061 0.70439,0.70867 l -107.1151,92.83273 1.43501,1.43501 106.39885,-93.54778 c 0.85909,0.92043 1.81921,1.43355 2.85759,2.14237 l -70.6956,122.82546 1.43348,1.4336 70.69573,-122.82527 c 0.47488,0.25746 0.94111,0.51381 1.43495,0.70521 l -44.98883,134.25136 1.43499,0 44.98872,-134.25136 c 1.4769,0.49317 2.66433,1.34868 4.28502,1.43363 l -0.002,141.39193 1.43361,0 0,-141.39193 c 0.72335,0 1.43503,-0.59785 2.14318,-0.70874 l 27.13715,139.24947 1.43352,-0.7086 -27.13615,-138.53445 c 1.26241,-0.30024 2.4337,-0.8556 3.57024,-1.43355 l 70.69572,122.8255 1.43503,-1.4335 -70.69679,-122.11261 c 0.62018,-0.38465 0.87884,-0.96304 1.43494,-1.43338 l 93.54804,106.40137 0.70353,-0.70607 -92.83324,-106.39929 c 0.55828,-0.55767 0.94115,-1.4985 1.43505,-2.14254 l 2.14209,0 121.39568,69.981 0.70353,-1.43364 -118.54019,-68.55327 7.85523,0 122.82621,41.41836 0.70436,-1.43357 -118.54012,-39.99058 128.53851,0.002 c -5.21905,84.32454 -75.04365,150.67532 -160.67452,150.67532 -5.56214,0 -11.00354,-0.2131 -16.42306,-0.7061 -5.41962,-0.5577 -10.46271,-1.0691 -15.7116,-2.1426 -72.08689,-14.7622 -126.5134,-77.58337 -128.53857,-153.53002 z m 792.65212,3.56189 c 0.46572,-0.21304 0.96299,0.21304 1.43494,0 -4.13286,85.34546 -75.022,152.81768 -161.38591,152.81768 -85.63038,0 -154.74275,-66.35289 -159.95848,-150.67502 l 105.68606,-0.002 -101.40105,19.99448 0.70436,1.43343 108.54179,-21.42413 27.84981,0 -118.54002,68.55338 0.70436,1.43356 121.39772,-69.98105 1.43497,0 c 0.21664,0.25555 0.51629,0.47061 0.70355,0.70614 l -106.40191,92.83298 0.70442,1.4336 106.40187,-93.54785 c 1.06904,1.15557 2.22158,2.03344 3.57014,2.85753 l -71.41128,122.11045 1.435,1.4336 70.69554,-122.82618 c 0.46576,0.25747 0.94114,0.5138 1.43513,0.70869 l -44.98678,134.25149 1.43355,0 44.98878,-134.25149 c 1.47705,0.49316 2.66545,1.34865 4.28305,1.43496 l 0,141.39193 1.43493,0 0,-141.39193 c 0.72331,0 1.43501,-0.59785 2.14301,-0.70608 l 27.84993,139.25171 1.43357,-0.7087 -27.84983,-138.53663 c 1.43502,-0.34224 3.02,-0.74905 4.28605,-1.43355 l 70.69561,122.82518 0.70442,-1.4336 -70.69568,-122.11038 c 0.72503,-0.44993 1.4976,-0.87771 2.13989,-1.4335 l 92.8354,106.4014 1.43342,-0.70865 -93.54677,-105.68865 c 0.87871,-0.79285 1.43342,-1.90509 2.14181,-2.85544 l 1.43509,0 121.39774,69.98113 0.70351,-1.43364 -118.54211,-68.55337 7.85535,0 122.82506,41.4185 0.70435,-1.43355 -118.54008,-39.99069 97.11826,0 c 4.37292,0.21305 8.07661,0.21305 12.13925,0 0,0 0.64087,0.007 0.70358,0 6.36996,-0.29948 12.23649,-0.96298 17.85146,-2.14054 z"
       id="path4627"
       inkscape:connector-curvature="0"
       inkscape:export-filename="C:\Users\SONY\Desktop\sticker kadai\sticker4.donkey.png"
       inkscape:export-xdpi="200"
       inkscape:export-ydpi="200" />
  </g>
</svg>
